STARTFONT 2.1
FONT -MIT-12MOUS KST-Medium-R-Normal--24-8-200-200-P-19-ISO8859-1
SIZE 8 200 200
FONTBOUNDINGBOX 51 24 -4 -6
STARTPROPERTIES 17
ADD_STYLE_NAME ""
AVERAGE_WIDTH 19
CHARSET_ENCODING "1"
CHARSET_REGISTRY "ISO8859"
DEFAULT_CHAR 0
FAMILY "12MOUS KST"
FONT_ASCENT 18
FONT_DESCENT 6
FOUNDRY "MIT"
PIXEL_SIZE 24
POINT_SIZE 8
RESOLUTION_X 200
RESOLUTION_Y 200
SETWIDTH_NAME "Normal"
SLANT "R"
SPACING "P"
WEIGHT_NAME "Medium"
ENDPROPERTIES
CHARS 57
STARTCHAR char0
ENCODING 0
SWIDTH 0 0
DWIDTH 0 0
BBX 0 24 0 -6
BITMAP
























ENDCHAR
STARTCHAR char1
ENCODING 1
SWIDTH 2000 0
DWIDTH 16 0
BBX 16 24 0 -6
BITMAP
0000
0010
0018
001C
FFFE
FFFF
FFFE
001C
0018
0010
0000
0000
0000
0000
0000
0000
0000
0000
0000
0000
0000
0000
0000
0000
ENDCHAR
STARTCHAR char2
ENCODING 2
SWIDTH 2000 0
DWIDTH 16 0
BBX 9 24 0 -6
BITMAP
0000
1C00
1C00
1C00
1C00
1C00
1C00
1C00
1C00
1C00
FF80
7F00
3E00
1C00
0800
0000
0000
0000
0000
0000
0000
0000
0000
0000
ENDCHAR
STARTCHAR char3
ENCODING 3
SWIDTH 2000 0
DWIDTH 16 0
BBX 16 24 0 -6
BITMAP
0000
0800
1800
3800
7FFF
FFFF
7FFF
3800
1800
0800
0000
0000
0000
0000
0000
0000
0000
0000
0000
0000
0000
0000
0000
0000
ENDCHAR
STARTCHAR char4
ENCODING 4
SWIDTH 2000 0
DWIDTH 16 0
BBX 9 24 0 -6
BITMAP
0800
1C00
3E00
7F00
FF80
1C00
1C00
1C00
1C00
1C00
FF80
7F00
3E00
1C00
0800
0000
0000
0000
0000
0000
0000
0000
0000
0000
ENDCHAR
STARTCHAR char5
ENCODING 5
SWIDTH 2000 0
DWIDTH 16 0
BBX 16 24 0 -6
BITMAP
0000
0810
1818
381C
7FFE
FFFF
7FFE
381C
1818
0810
0000
0000
0000
0000
0000
0000
0000
0000
0000
0000
0000
0000
0000
0000
ENDCHAR
STARTCHAR char6
ENCODING 6
SWIDTH 2000 0
DWIDTH 16 0
BBX 8 24 0 -6
BITMAP
80
C0
E0
F0
F8
FC
FE
F0
D8
98
0C
0C
06
06
03
03
00
00
00
00
00
00
00
00
ENDCHAR
STARTCHAR char7
ENCODING 7
SWIDTH 2000 0
DWIDTH 16 0
BBX 9 24 0 -6
BITMAP
0000
8080
4100
2200
1400
0800
1400
2200
4100
8080
0000
0000
0000
0000
0000
0000
0000
0000
0000
0000
0000
0000
0000
0000
ENDCHAR
STARTCHAR char8
ENCODING 8
SWIDTH 2000 0
DWIDTH 16 0
BBX 14 24 0 -6
BITMAP
0300
0780
0FC0
1FE0
3FF0
7FF8
FFFC
1FE0
1FE0
1FE0
1FE0
1FE0
1FE0
1FE0
1FE0
1FE0
0000
0000
0000
0000
0000
0000
0000
0000
ENDCHAR
STARTCHAR char9
ENCODING 9
SWIDTH 2000 0
DWIDTH 16 0
BBX 16 24 0 -6
BITMAP
0000
0040
0060
0070
FFF8
FFFC
FFFE
FFFF
FFFF
FFFE
FFFC
FFF8
0070
0060
0040
0000
0000
0000
0000
0000
0000
0000
0000
0000
ENDCHAR
STARTCHAR char10
ENCODING 10
SWIDTH 2000 0
DWIDTH 16 0
BBX 14 24 0 -6
BITMAP
1FE0
1FE0
1FE0
1FE0
1FE0
1FE0
1FE0
1FE0
FFFC
7FF8
3FF0
1FE0
0FC0
0780
0300
0000
0000
0000
0000
0000
0000
0000
0000
0000
ENDCHAR
STARTCHAR char11
ENCODING 11
SWIDTH 2000 0
DWIDTH 16 0
BBX 16 24 0 -6
BITMAP
0000
0200
0600
0E00
1FFF
3FFF
7FFF
FFFF
FFFF
7FFF
3FFF
1FFF
0E00
0600
0200
0000
0000
0000
0000
0000
0000
0000
0000
0000
ENDCHAR
STARTCHAR char12
ENCODING 12
SWIDTH 2000 0
DWIDTH 16 0
BBX 12 24 0 -6
BITMAP
0600
0F00
1F80
3FC0
7FE0
FFF0
1F80
1F80
1F80
1F80
FFF0
7FE0
3FC0
1F80
0F00
0600
0000
0000
0000
0000
0000
0000
0000
0000
ENDCHAR
STARTCHAR char16
ENCODING 16
SWIDTH 2000 0
DWIDTH 16 0
BBX 9 24 0 -6
BITMAP
0000
7F80
8280
8280
8280
7E80
0280
0280
0280
0280
0280
0280
0280
1F80
0000
0000
0000
0000
0000
0000
0000
0000
0000
0000
ENDCHAR
STARTCHAR char17
ENCODING 17
SWIDTH 2000 0
DWIDTH 16 0
BBX 12 24 0 -6
BITMAP
FFF0
FFF0
C000
C000
C000
C000
C000
C000
C000
C000
C000
C000
0000
0000
0000
0000
0000
0000
0000
0000
0000
0000
0000
0000
ENDCHAR
STARTCHAR char18
ENCODING 18
SWIDTH 2000 0
DWIDTH 16 0
BBX 12 24 0 -6
BITMAP
0030
0030
0030
0030
0030
0030
0030
0030
0030
0030
FFF0
FFF0
0000
0000
0000
0000
0000
0000
0000
0000
0000
0000
0000
0000
ENDCHAR
STARTCHAR char19
ENCODING 19
SWIDTH 2000 0
DWIDTH 16 0
BBX 13 24 0 -6
BITMAP
FFF8
8008
E038
78F0
3DE0
1FC0
0F80
0700
0F80
1AC0
3260
6730
CF98
9FC8
FFF8
0000
0000
0000
0000
0000
0000
0000
0000
0000
ENDCHAR
STARTCHAR char20
ENCODING 20
SWIDTH 2000 0
DWIDTH 16 0
BBX 12 24 0 -6
BITMAP
0000
0000
0F00
3FC0
76E0
6660
C630
FFF0
FFF0
C630
6660
76E0
3FC0
0F00
0000
0000
0000
0000
0000
0000
0000
0000
0000
0000
ENDCHAR
STARTCHAR char21
ENCODING 21
SWIDTH 2000 0
DWIDTH 16 0
BBX 13 24 0 -6
BITMAP
00C0
00C0
00C0
00C0
00C0
00C0
0000
07F8
07F8
0000
07F8
07F8
0FF0
1FE0
3FC0
FF00
0000
0000
0000
0000
0000
0000
0000
0000
ENDCHAR
STARTCHAR char22
ENCODING 22
SWIDTH 2000 0
DWIDTH 16 0
BBX 12 24 0 -6
BITMAP
8010
C030
C030
E070
70E0
39C0
39C0
1980
1980
0600
0600
7FE0
4920
4920
50A0
70E0
0000
0000
0000
0000
0000
0000
0000
0000
ENDCHAR
STARTCHAR char23
ENCODING 23
SWIDTH 2000 0
DWIDTH 16 0
BBX 10 24 0 -6
BITMAP
0C00
0C00
EDC0
AD40
6D80
CCC0
8C40
CCC0
6D80
3F00
0C00
0C00
0C00
0C00
0C00
0C00
0000
0000
0000
0000
0000
0000
0000
0000
ENDCHAR
STARTCHAR char25
ENCODING 25
SWIDTH 1000 0
DWIDTH 8 0
BBX 8 24 0 -6
BITMAP
01
03
07
0F
1F
3F
7F
0F
1B
19
30
30
60
60
C0
C0
00
00
00
00
00
00
00
00
ENDCHAR
STARTCHAR char26
ENCODING 26
SWIDTH 2000 0
DWIDTH 16 0
BBX 12 24 0 -6
BITMAP
0000
0000
0F00
3FC0
70E0
70E0
D9B0
CF30
CF30
D9B0
70E0
70E0
3FC0
0F00
0000
0000
0000
0000
0000
0000
0000
0000
0000
0000
ENDCHAR
STARTCHAR char28
ENCODING 28
SWIDTH 2000 0
DWIDTH 16 0
BBX 15 24 0 -6
BITMAP
8000
E000
F800
FE00
FF80
FFE0
FFF8
FFFE
FFF8
FFE0
FF80
FE00
F800
E000
8000
0000
0000
0000
0000
0000
0000
0000
0000
0000
ENDCHAR
STARTCHAR char29
ENCODING 29
SWIDTH 2000 0
DWIDTH 16 0
BBX 11 24 0 -6
BITMAP
0000
0000
8000
E000
F800
FE00
FF80
FFE0
FF80
FE00
F800
E000
8000
0000
0000
0000
0000
0000
0000
0000
0000
0000
0000
0000
ENDCHAR
STARTCHAR char30
ENCODING 30
SWIDTH 2000 0
DWIDTH 16 0
BBX 7 24 0 -6
BITMAP
00
00
00
00
80
E0
F8
FE
F8
E0
80
00
00
00
00
00
00
00
00
00
00
00
00
00
ENDCHAR
STARTCHAR char31
ENCODING 31
SWIDTH 2000 0
DWIDTH 16 0
BBX 16 24 0 -6
BITMAP
FFFF
FFFF
FFFF
FFFF
FE7F
FE7F
FC3F
FC3F
F81F
F00F
F00F
E007
FC3F
FC3F
FC3F
FC3F
0000
0000
0000
0000
0000
0000
0000
0000
ENDCHAR
STARTCHAR char32
ENCODING 32
SWIDTH 2000 0
DWIDTH 16 0
BBX 16 24 -16 -6
BITMAP
0000
0000
0000
0040
0020
0080
FC3F
FC3F
FC3F
FC3F
E007
F00F
F00F
F81F
FC3F
FC3F
FE7F
FE7F
FFFF
FFFF
FFFF
FFFF
0000
0000
ENDCHAR
STARTCHAR char45
ENCODING 45
SWIDTH 2000 0
DWIDTH 16 0
BBX 16 24 0 -6
BITMAP
0000
0000
0000
0000
0000
03C0
0FF0
3FFC
FFFF
3FFC
0FF0
03C0
0000
0000
0000
0000
0000
0000
0000
0000
0000
0000
0000
0000
ENDCHAR
STARTCHAR char65
ENCODING 65
SWIDTH 2375 0
DWIDTH 19 0
BBX 17 24 0 -6
BITMAP
100400
300600
600300
D00580
080800
041000
022000
000000
000000
000000
022000
041000
080800
D00580
600300
300600
100400
000000
000000
000000
000000
000000
000000
000000
ENDCHAR
STARTCHAR char66
ENCODING 66
SWIDTH 4375 0
DWIDTH 35 0
BBX 30 24 0 -6
BITMAP
FFFFFE00
80000200
80000200
80000200
8000FA00
80078F00
811C02C4
81300264
81600214
8180020C
81F0027C
80000200
80000200
80000200
80000200
80000200
FFFFFE00
00000000
00000000
00000000
00000000
00000000
00000000
00000000
ENDCHAR
STARTCHAR char67
ENCODING 67
SWIDTH 3500 0
DWIDTH 28 0
BBX 23 24 0 -6
BITMAP
FFFFFE
800002
800002
800002
800002
800002
800002
800002
800002
800002
800002
800002
800002
800002
800002
800002
FFFFFE
000000
000000
000000
000000
000000
000000
000000
ENDCHAR
STARTCHAR char68
ENCODING 68
SWIDTH 3000 0
DWIDTH 24 0
BBX 19 24 0 -6
BITMAP
FFFFE0
FFFFE0
FFFFE0
FFFFE0
F001E0
F001E0
F001E0
F001E0
F001E0
F001E0
F001E0
F001E0
F001E0
FFFFE0
FFFFE0
FFFFE0
FFFFE0
000000
000000
000000
000000
000000
000000
000000
ENDCHAR
STARTCHAR char69
ENCODING 69
SWIDTH 4000 0
DWIDTH 32 0
BBX 27 24 0 -6
BITMAP
00000000
00000000
00000000
00000000
00000000
00000000
00000000
700001C0
88000220
8FFFFE20
88000220
700001C0
00000000
00000000
00000000
00000000
00000000
00000000
00000000
00000000
00000000
00000000
00000000
00000000
ENDCHAR
STARTCHAR char70
ENCODING 70
SWIDTH 3000 0
DWIDTH 24 0
BBX 19 24 0 -6
BITMAP
000040
000040
000040
000040
000040
000040
000040
0000E0
FFFFE0
0000E0
000040
000040
000040
000040
000040
000040
000040
000000
000000
000000
000000
000000
000000
000000
ENDCHAR
STARTCHAR char71
ENCODING 71
SWIDTH 4750 0
DWIDTH 38 0
BBX 32 24 0 -6
BITMAP
FFFFFFFF
80000001
80000001
80000001
9FC00001
92400021
820E3671
82111421
821F0821
82100821
82111429
870E3611
80000001
80000001
80000001
80000001
FFFFFFFF
00000000
00000000
00000000
00000000
00000000
00000000
00000000
ENDCHAR
STARTCHAR char72
ENCODING 72
SWIDTH 3750 0
DWIDTH 30 0
BBX 24 24 0 -6
BITMAP
000000
07F800
040E00
040380
FC0080
0400C0
040040
040060
04007F
040060
040060
040040
0400C0
FC0080
040380
040E00
07FC00
000000
000000
000000
000000
000000
000000
000000
ENDCHAR
STARTCHAR char73
ENCODING 73
SWIDTH 3750 0
DWIDTH 30 0
BBX 24 24 0 -6
BITMAP
000000
1FF800
080E00
040380
FE0080
0200C0
020040
010060
01007F
010060
010060
020040
0200C0
FE0080
040380
080E00
1FFC00
000000
000000
000000
000000
000000
000000
000000
ENDCHAR
STARTCHAR char74
ENCODING 74
SWIDTH 3500 0
DWIDTH 28 0
BBX 22 24 0 -6
BITMAP
000000
0C0000
0B0000
08C000
083000
080C00
080300
080080
F8007C
F8007C
080180
080600
080800
083000
08C000
0B0000
0C0000
000000
000000
000000
000000
000000
000000
000000
ENDCHAR
STARTCHAR char75
ENCODING 75
SWIDTH 2750 0
DWIDTH 22 0
BBX 17 24 0 -6
BITMAP
07F000
1FFC00
300E00
780300
6C0300
C60180
C30180
C18180
C0C180
C06180
C03180
C01980
600F00
600700
380E00
1FFC00
07F000
000000
000000
000000
000000
000000
000000
000000
ENDCHAR
STARTCHAR char76
ENCODING 76
SWIDTH 5250 0
DWIDTH 42 0
BBX 37 24 0 -6
BITMAP
001FFFFFF8
0010000008
0010000008
003C13A8E8
03F3922888
0E105328C8
3010322888
E011F22EE8
8010000008
0010000008
00100007F8
0010007C00
001003C000
00100E0000
0010180000
0011F00000
001F000000
0000000000
0000000000
0000000000
0000000000
0000000000
0000000000
0000000000
ENDCHAR
STARTCHAR char77
ENCODING 77
SWIDTH 7000 0
DWIDTH 56 0
BBX 51 24 0 -6
BITMAP
001FFFFFFFFFE0
00100000000020
00100000000020
003C13DF10C7A0
03F390552D2820
0E1050957D0720
3010311145A0A0
E011F3D144CF20
80100000000020
00100000000020
0010000001FFE0
00100000FF0000
0010000F800000
00100038000000
001001E0000000
00100F00000000
001FF800000000
00000000000000
00000000000000
00000000000000
00000000000000
00000000000000
00000000000000
00000000000000
ENDCHAR
STARTCHAR char78
ENCODING 78
SWIDTH 3500 0
DWIDTH 28 0
BBX 23 24 0 -6
BITMAP
001000
002800
004400
008200
010100
020080
041040
083820
107C10
20FE08
41FF04
FFFFFE
07FFC0
0FFFE0
1FFFF0
3FFFF8
7FFFFC
FFFFFE
000000
000000
000000
000000
000000
000000
ENDCHAR
STARTCHAR char79
ENCODING 79
SWIDTH 2000 0
DWIDTH 16 0
BBX 4 24 4 -6
BITMAP
00
00
00
00
00
00
30
40
80
80
40
30
00
00
70
50
70
00
00
00
00
00
00
00
ENDCHAR
STARTCHAR char96
ENCODING 96
SWIDTH 2000 0
DWIDTH 16 0
BBX 7 24 0 -6
BITMAP
00
00
00
00
00
00
02
00
00
00
00
00
00
00
00
00
00
00
00
00
00
00
00
00
ENDCHAR
STARTCHAR char97
ENCODING 97
SWIDTH 2000 0
DWIDTH 16 0
BBX 13 24 0 -6
BITMAP
C018
E038
7070
38E0
1DC0
0F80
0700
0F80
1DC0
38E0
7070
E038
C018
0000
0000
0000
0000
0000
0000
0000
0000
0000
0000
0000
ENDCHAR
STARTCHAR char98
ENCODING 98
SWIDTH 2000 0
DWIDTH 16 0
BBX 11 24 0 -6
BITMAP
0000
0600
1F80
3FC0
3FC0
7FE0
7FE0
3FC0
3FC0
1F80
0600
0000
0000
0000
0000
0000
0000
0000
0000
0000
0000
0000
0000
0000
ENDCHAR
STARTCHAR char99
ENCODING 99
SWIDTH 2000 0
DWIDTH 16 0
BBX 13 24 0 -6
BITMAP
0700
1FC0
3FE0
7FF0
7FF0
FFF8
FFF8
FFF8
7FF0
7FF0
3FE0
1FC0
0700
0000
0000
0000
0000
0000
0000
0000
0000
0000
0000
0000
ENDCHAR
STARTCHAR char100
ENCODING 100
SWIDTH 2000 0
DWIDTH 16 0
BBX 13 24 0 -6
BITMAP
0700
1FC0
38E0
6030
6030
C018
C018
C018
6030
6030
38E0
1FC0
0700
0000
0000
0000
0000
0000
0000
0000
0000
0000
0000
0000
ENDCHAR
STARTCHAR char101
ENCODING 101
SWIDTH 2000 0
DWIDTH 16 0
BBX 13 24 0 -6
BITMAP
0700
1FC0
38E0
6030
6030
C018
CF98
C018
6030
6030
38E0
1FC0
0700
0000
0000
0000
0000
0000
0000
0000
0000
0000
0000
0000
ENDCHAR
STARTCHAR char102
ENCODING 102
SWIDTH 2000 0
DWIDTH 16 0
BBX 13 24 0 -6
BITMAP
0700
1FC0
38E0
6030
6230
C218
CF98
C218
6230
6030
38E0
1FC0
0700
0000
0000
0000
0000
0000
0000
0000
0000
0000
0000
0000
ENDCHAR
STARTCHAR char106
ENCODING 106
SWIDTH 2000 0
DWIDTH 16 0
BBX 15 24 0 -6
BITMAP
0000
0000
0000
0380
0380
0380
0380
0380
0380
1FF0
0FE0
07C0
0380
0100
FFFE
FFFE
0000
0000
0000
0000
0000
0000
0000
0000
ENDCHAR
STARTCHAR char107
ENCODING 107
SWIDTH 2000 0
DWIDTH 16 0
BBX 9 24 3 -6
BITMAP
0000
0000
0000
1C00
1C00
1C00
1C00
1C00
1C00
FF80
7F00
3E00
1C00
0800
0000
0000
0000
0000
0000
0000
0000
0000
0000
0000
ENDCHAR
STARTCHAR char108
ENCODING 108
SWIDTH 2000 0
DWIDTH 16 0
BBX 15 24 0 -6
BITMAP
FFFE
FFFE
0100
0380
07C0
0FE0
1FF0
0380
0380
0380
0380
0380
0380
0000
0000
0000
0000
0000
0000
0000
0000
0000
0000
0000
ENDCHAR
STARTCHAR char109
ENCODING 109
SWIDTH 2000 0
DWIDTH 16 0
BBX 9 24 3 -6
BITMAP
0800
1C00
3E00
7F00
FF80
1C00
1C00
1C00
1C00
1C00
1C00
0000
0000
0000
0000
0000
0000
0000
0000
0000
0000
0000
0000
0000
ENDCHAR
STARTCHAR char110
ENCODING 110
SWIDTH 2000 0
DWIDTH 16 0
BBX 16 24 0 -6
BITMAP
FFFF
FFFF
FFFF
FFFF
FFFF
FFFF
C003
C003
C003
C183
C3C3
C7E3
CFF3
C003
C003
C003
0000
0000
0000
0000
0000
0000
0000
0000
ENDCHAR
STARTCHAR char117
ENCODING 117
SWIDTH 2000 0
DWIDTH 16 0
BBX 16 24 0 -6
BITMAP
C003
C003
C003
CFF3
C7E3
C3C3
C183
C003
C003
C003
FFFF
FFFF
FFFF
FFFF
FFFF
FFFF
0000
0000
0000
0000
0000
0000
0000
0000
ENDCHAR
ENDFONT
